<?xml version="1.0" encoding="utf-8"?>
<!-- Generator: Adobe Illustrator 16.0.0, SVG Export Plug-In . SVG Version: 6.00 Build 0)  -->
<!DOCTYPE svg PUBLIC "-//W3C//DTD SVG 1.1//EN" "http://www.w3.org/Graphics/SVG/1.1/DTD/svg11.dtd">
<svg version="1.1" xmlns="http://www.w3.org/2000/svg" xmlns:xlink="http://www.w3.org/1999/xlink" x="0px" y="0px" width="12px"
	 height="12px" viewBox="0 0 12 12" enable-background="new 0 0 12 12" xml:space="preserve">
<g id="Ebene_2">
	<path fill="#FFFFFF" stroke="#999999" stroke-width="1.2" stroke-miterlimit="10" d="M5.098,8.709c0,1.082,0.541,2.076,1.265,2.707
		H0.584v-3.25l1.534-0.813C2.57,7.174,2.66,6.633,2.39,6.271c0,0-0.813-0.993-0.813-2.257c0-1.896,1.173-3.43,2.617-3.43
		s2.619,1.535,2.619,3.43C6.813,5.278,6,6.271,6,6.271v0.09C5.459,6.992,5.098,7.805,5.098,8.709z M11.417,7.805H9.612V6H7.806
		v1.804H6v1.807h1.806v1.805h1.807V9.611h1.805V7.805z"/>
</g>
<g id="Ebene_1" display="none">
	<path display="inline" fill="none" stroke="#999999" stroke-miterlimit="10" d="M5.097,8.709c0,1.082,0.542,2.076,1.264,2.707
		H0.583v-3.25l1.535-0.813C2.57,7.174,2.66,6.633,2.389,6.271c0,0-0.813-0.993-0.813-2.257c0-1.896,1.173-3.43,2.618-3.43
		c1.445,0,2.618,1.535,2.618,3.43C6.813,5.278,6,6.271,6,6.271v0.09C5.458,6.992,5.097,7.805,5.097,8.709z M11.416,7.805H9.611V6
		H7.805v1.804H6v1.807h1.805v1.805h1.807V9.611h1.805V7.805z"/>
</g>
</svg>
