<?xml version="1.0" encoding="utf-8"?>
<!-- Generator: Adobe Illustrator 16.0.0, SVG Export Plug-In . SVG Version: 6.00 Build 0)  -->
<!DOCTYPE svg PUBLIC "-//W3C//DTD SVG 1.1//EN" "http://www.w3.org/Graphics/SVG/1.1/DTD/svg11.dtd">
<svg version="1.1" xmlns="http://www.w3.org/2000/svg" xmlns:xlink="http://www.w3.org/1999/xlink" x="0px" y="0px" width="12px"
	 height="12px" viewBox="0 0 12 12" enable-background="new 0 0 12 12" xml:space="preserve">
<g id="Ebene_2">
</g>
<g id="Ebene_1">
	<path fill="#FFFFFF" stroke="#999999" stroke-width="1.5" stroke-miterlimit="10" d="M7.902,5.956l2.832-2.832
		c0.354-0.354,0.354-0.885,0-1.239l-0.619-0.619c-0.354-0.354-0.886-0.354-1.239,0l-2.92,2.831L3.124,1.266
		c-0.354-0.354-0.885-0.354-1.239,0l-0.62,0.619c-0.354,0.354-0.354,0.885,0,1.239l2.832,2.832l-2.832,2.92
		c-0.354,0.354-0.354,0.886,0,1.239l0.62,0.619c0.354,0.354,0.885,0.354,1.239,0l2.832-2.832l2.92,2.832
		c0.354,0.354,0.885,0.354,1.239,0l0.619-0.619c0.354-0.354,0.354-0.886,0-1.239L7.902,5.956z"/>
</g>
</svg>
