<?xml version="1.0" encoding="utf-8"?>
<!-- Generator: Adobe Illustrator 16.0.0, SVG Export Plug-In . SVG Version: 6.00 Build 0)  -->
<!DOCTYPE svg PUBLIC "-//W3C//DTD SVG 1.1//EN" "http://www.w3.org/Graphics/SVG/1.1/DTD/svg11.dtd">
<svg version="1.1" id="Ebene_1" xmlns="http://www.w3.org/2000/svg" xmlns:xlink="http://www.w3.org/1999/xlink" x="0px" y="0px"
	 width="12px" height="12px" viewBox="0 0 12 12" enable-background="new 0 0 12 12" xml:space="preserve">
<g id="Ebene_2">
	<path fill="#FFFFFF" d="M11.286,6.896c0.089-0.27,0.089-0.627,0.089-0.896s0-0.627-0.089-0.896L9.852,4.835
		C9.764,4.566,9.673,4.298,9.494,4.029L10.3,2.865C10.031,2.417,9.583,1.969,9.137,1.61L7.881,2.417
		c-0.179-0.09-0.447-0.18-0.717-0.269L6.896,0.715C6.627,0.625,6.269,0.625,6,0.625s-0.627,0-0.896,0.09L4.835,2.148
		C4.566,2.237,4.298,2.327,4.029,2.417L2.865,1.61C2.417,1.969,1.969,2.417,1.61,2.865l0.806,1.164
		C2.327,4.298,2.237,4.566,2.148,4.835L0.715,5.104C0.625,5.373,0.625,5.731,0.625,6s0,0.627,0.09,0.896l1.433,0.269
		c0.089,0.269,0.179,0.538,0.269,0.717L1.61,9.136c0.358,0.447,0.806,0.896,1.254,1.255l1.164-0.808
		c0.269,0.09,0.538,0.269,0.807,0.358l0.269,1.345C5.373,11.375,5.731,11.375,6,11.375s0.627,0,0.896-0.089l0.269-1.435
		c0.269-0.09,0.538-0.18,0.808-0.357L9.137,10.3c0.446-0.356,0.896-0.806,1.254-1.254L9.494,7.881
		c0.089-0.27,0.27-0.537,0.357-0.806L11.286,6.896z M6,7.344C5.284,7.344,4.656,6.717,4.656,6c0-0.716,0.627-1.344,1.344-1.344
		S7.344,5.283,7.344,6S6.717,7.344,6,7.344z"/>
</g>
<g id="Ebene_1_1_">
	<path fill="none" stroke="#666666" stroke-miterlimit="10" d="M11.286,6.896c0.089-0.27,0.089-0.627,0.089-0.896
		s0-0.627-0.089-0.896L9.852,4.835C9.764,4.566,9.673,4.298,9.494,4.029L10.3,2.865C10.031,2.417,9.583,1.969,9.137,1.61
		L7.881,2.417c-0.179-0.09-0.447-0.18-0.717-0.269L6.896,0.715C6.627,0.625,6.269,0.625,6,0.625s-0.627,0-0.896,0.09L4.835,2.148
		C4.566,2.237,4.298,2.327,4.029,2.417L2.865,1.61C2.417,1.969,1.969,2.417,1.61,2.865l0.806,1.164
		C2.327,4.298,2.237,4.566,2.148,4.835L0.715,5.104C0.625,5.373,0.625,5.731,0.625,6s0,0.627,0.09,0.896l1.433,0.269
		c0.089,0.269,0.179,0.538,0.269,0.717L1.61,9.136c0.358,0.447,0.806,0.896,1.254,1.255l1.164-0.808
		c0.269,0.09,0.538,0.269,0.807,0.358l0.269,1.345C5.373,11.375,5.731,11.375,6,11.375s0.627,0,0.896-0.089l0.269-1.435
		c0.269-0.09,0.538-0.18,0.808-0.357L9.137,10.3c0.446-0.356,0.896-0.806,1.254-1.254L9.494,7.881
		c0.089-0.27,0.27-0.537,0.357-0.806L11.286,6.896z M6,7.344C5.284,7.344,4.656,6.717,4.656,6c0-0.716,0.627-1.344,1.344-1.344
		S7.344,5.283,7.344,6S6.717,7.344,6,7.344z"/>
</g>
</svg>
