<?xml version="1.0" encoding="utf-8"?>
<!-- Generator: Adobe Illustrator 16.0.0, SVG Export Plug-In . SVG Version: 6.00 Build 0)  -->
<!DOCTYPE svg PUBLIC "-//W3C//DTD SVG 1.1//EN" "http://www.w3.org/Graphics/SVG/1.1/DTD/svg11.dtd">
<svg version="1.1" xmlns="http://www.w3.org/2000/svg" xmlns:xlink="http://www.w3.org/1999/xlink" x="0px" y="0px" width="12px"
	 height="12px" viewBox="0 0 12 12" enable-background="new 0 0 12 12" xml:space="preserve">
<g id="Ebene_2">
</g>
<g id="Ebene_1">
	<path fill="#FFFFFF" stroke="#999999" stroke-width="1.5" stroke-miterlimit="10" d="M10.893,7.717l-3.176,3.176
		c-0.172,0.173-0.43,0.257-0.602,0.257c-0.257,0-0.43-0.084-0.601-0.257l-3.09-3.09c-0.343-0.343-0.343-0.859,0-1.202L4.026,6
		c0.343-0.344,0.858-0.344,1.202,0l1.888,1.889L9.09,5.914c0.343-0.343,0.858-0.343,1.202,0l0.601,0.601
		C11.235,6.858,11.235,7.373,10.893,7.717z M6.772,6c0.343,0.343,0.859,0.343,1.201,0l0.602-0.601c0.344-0.344,0.344-0.858,0-1.202
		l-3.176-3.09c-0.343-0.343-0.858-0.343-1.202,0l-0.6,0.601l0,0l-2.49,2.489c-0.343,0.343-0.343,0.858,0,1.202l0.601,0.687
		c0.343,0.343,0.858,0.343,1.202,0l1.888-1.889L6.772,6z"/>
</g>
</svg>
