<?xml version="1.0" encoding="utf-8"?>
<!-- Generator: Adobe Illustrator 16.0.0, SVG Export Plug-In . SVG Version: 6.00 Build 0)  -->
<!DOCTYPE svg PUBLIC "-//W3C//DTD SVG 1.1//EN" "http://www.w3.org/Graphics/SVG/1.1/DTD/svg11.dtd">
<svg version="1.1" id="Ebene_1" xmlns="http://www.w3.org/2000/svg" xmlns:xlink="http://www.w3.org/1999/xlink" x="0px" y="0px"
	 width="12px" height="12px" viewBox="0 0 12 12" enable-background="new 0 0 12 12" xml:space="preserve">
<path fill="#FFFFFF" stroke="#999999" stroke-width="1.2" stroke-miterlimit="10" d="M10.898,9.039L9.556,7.707
	c-0.089-0.09-0.18-0.09-0.268-0.176C9.646,6.82,9.914,6.11,9.914,5.313C9.914,2.74,7.856,0.7,5.352,0.7
	C2.757,0.7,0.7,2.74,0.7,5.313c0,2.57,2.058,4.613,4.652,4.613c0.805,0,1.521-0.18,2.146-0.535c0.09,0,0.09,0.09,0.179,0.18
	l1.341,1.33c0.538,0.533,1.343,0.533,1.881,0C11.435,10.367,11.435,9.57,10.898,9.039z M5.352,7.176
	c-1.074,0-1.968-0.798-1.968-1.863c0-1.064,0.895-1.952,1.968-1.952c1.073,0,1.969,0.887,1.969,1.952
	C7.229,6.377,6.424,7.176,5.352,7.176z"/>
</svg>
