<?xml version="1.0" encoding="utf-8"?>
<!-- Generator: Adobe Illustrator 16.0.0, SVG Export Plug-In . SVG Version: 6.00 Build 0)  -->
<!DOCTYPE svg PUBLIC "-//W3C//DTD SVG 1.1//EN" "http://www.w3.org/Graphics/SVG/1.1/DTD/svg11.dtd">
<svg version="1.1" xmlns="http://www.w3.org/2000/svg" xmlns:xlink="http://www.w3.org/1999/xlink" x="0px" y="0px" width="12px"
	 height="12px" viewBox="0 0 12 12" enable-background="new 0 0 12 12" xml:space="preserve">
<g id="Ebene_1">
	<g id="Ebene_2">
		<rect x="1.797" y="1.686" fill="#FFFFFF" width="8.521" height="5.95"/>
	</g>
	<g id="Ebene_1_1_">
		<path fill="#999999" d="M6,0C2.8,0,0,2.917,0,4.713c0,1.795,2.8,4.713,6,4.713s6-2.918,6-4.713C12,2.917,9.2,0,6,0z M2,4.713
			c0.2-0.449,1.4-1.796,3-2.245C4.2,2.805,3.7,3.703,3.7,4.713c0,1.01,0.5,1.907,1.3,2.355C3.4,6.62,2.2,5.274,2,4.713z M5.1,5.1
			C4.55,5.1,4,4.688,4,4c0-0.687,0.413-1.1,1.1-1.1S6.2,3.313,6.2,4C6.2,4.688,5.649,5.1,5.1,5.1z M7,7.068
			C7.8,6.62,8.3,5.724,8.3,4.713c0-1.011-0.5-1.908-1.3-2.357c1.6,0.561,2.8,1.908,3,2.357C9.8,5.274,8.6,6.62,7,7.068z"/>
	</g>
</g>
<g id="Ebene_2_1_">
	
		<rect x="4.861" y="-0.863" transform="matrix(0.705 0.7092 -0.7092 0.705 6.0257 -2.4852)" fill="#FFFFFF" stroke="#999999" stroke-width="0.5" stroke-miterlimit="10" width="2.277" height="13.725"/>
</g>
</svg>
