<?xml version="1.0" encoding="utf-8"?>
<!-- Generator: Adobe Illustrator 16.0.0, SVG Export Plug-In . SVG Version: 6.00 Build 0)  -->
<!DOCTYPE svg PUBLIC "-//W3C//DTD SVG 1.1//EN" "http://www.w3.org/Graphics/SVG/1.1/DTD/svg11.dtd">
<svg version="1.1" id="Ebene_1" xmlns="http://www.w3.org/2000/svg" xmlns:xlink="http://www.w3.org/1999/xlink" x="0px" y="0px"
	 width="16px" height="16px" viewBox="0 0 16 16" enable-background="new 0 0 16 16" xml:space="preserve">
<g id="Ebene_2">
	<ellipse fill="#FFFFFF" cx="7.849" cy="8.447" rx="6.308" ry="6.553"/>
</g>
<g id="Ebene_1_1_">
	<path fill="#999999" d="M8,0.2C3.71,0.2,0.2,3.71,0.2,8s3.51,7.8,7.8,7.8s7.8-3.51,7.8-7.8S12.29,0.2,8,0.2z M8,13.85
		c-3.217,0-5.85-2.632-5.85-5.85c0-3.217,2.633-5.85,5.85-5.85c3.218,0,5.85,2.633,5.85,5.85C13.85,11.218,11.218,13.85,8,13.85z
		 M5.855,6.635c-0.585,0-0.975-0.39-0.975-0.975C4.783,4.587,5.953,3.125,8.098,3.125c1.365,0,3.314,0.975,3.314,2.535
		c0,0.78-0.487,1.462-1.462,1.853C8.487,8,9.268,9.072,8,9.072c-0.585,0-0.975-0.292-0.975-0.877c0-1.17,1.17-1.755,1.17-2.925
		c0-0.292-0.097-0.683-0.487-0.683s-0.39,0.39-0.39,0.683C7.22,6.147,6.732,6.635,5.855,6.635z M7.902,12.973
		c-0.78,0-1.462-0.683-1.462-1.463c0-0.779,0.585-1.56,1.462-1.56c0.78,0,1.463,0.683,1.463,1.462
		C9.365,12.192,8.683,12.973,7.902,12.973z"/>
</g>
</svg>
