<?xml version="1.0" encoding="utf-8"?>
<!-- Generator: Adobe Illustrator 16.0.0, SVG Export Plug-In . SVG Version: 6.00 Build 0)  -->
<!DOCTYPE svg PUBLIC "-//W3C//DTD SVG 1.1//EN" "http://www.w3.org/Graphics/SVG/1.1/DTD/svg11.dtd">
<svg version="1.1" xmlns="http://www.w3.org/2000/svg" xmlns:xlink="http://www.w3.org/1999/xlink" x="0px" y="0px" width="16px"
	 height="16px" viewBox="0 0 16 16" enable-background="new 0 0 16 16" xml:space="preserve">
<g id="Ebene_2">
	<path fill="#FFFFFF" stroke="#FFFFFF" stroke-miterlimit="10" d="M4.213,1.637c0,0-2.259,3.811-1.906,5.369
		C2.66,8.564,3.156,11.859,3.534,12.1c0.489,0.311,1.263,2.891,1.263,2.891l4.268-0.345c0,0,0.421-2.035,1.435-3.083
		s0.77-3.244,0.77-3.244V4.754L8.518,1.637H4.213z"/>
</g>
<g id="Ebene_1">
	<path fill="#999999" d="M9.9,13.6l-6,0.5l0,0c0,0-0.1-0.5-0.3-1l6.8-0.5C10.2,12.8,10,13.3,9.9,13.6z M4.2,15
		c0.2,0.4,0.4,0.8,0.7,0.8c0,0,0.7,0.2,2,0.2c1.3,0,2-0.2,2-0.2c0.3,0,0.6-0.7,0.8-1.2L4.2,15z M0,6.8C0,3.1,3.1,0,6.8,0
		c3.8,0,6.8,3.1,6.8,6.8c0,1.8-1.3,3.601-2.3,4.601L2.8,12.1C2.2,11.5,0,9.1,0,6.8z M1.9,6.9c0,2,2.2,3.8,2.6,4.1h4.7
		c0.3-0.3,2.6-2,2.6-4.1c0-2.7-2.2-4.9-5-4.9C4.1,2,1.9,4.2,1.9,6.9z M7,3.1C6.4,2.5,5.2,2.7,4.3,3.6C3.4,4.5,3.1,5.7,3.7,6.3
		c0.6,0.6,1.8,0.3,2.7-0.6C7.3,4.8,7.6,3.7,7,3.1z"/>
</g>
</svg>
